<svg width="125" height="27" viewBox="0 0 125 27" fill="none" xmlns="http://www.w3.org/2000/svg">
<path d="M37.8777 11.881C37.6255 13.8304 34.978 20.3674 32.2665 24.3284C31.574 25.3332 30.8157 25.5233 29.8071 25.5233C29.1748 25.5233 28.4203 25.4612 27.4738 25.4612C26.1491 25.4612 25.0784 25.273 24.0058 24.3924C23.1233 23.826 22.8072 22.8833 22.6811 21.7524C22.1768 14.649 23.9419 9.55525 24.194 5.40612C24.194 5.28005 17.8885 23.1975 17.8245 23.6378C17.8245 24.2042 17.4463 24.5184 16.942 24.5184C13.0958 24.5184 11.2668 24.5184 10.8886 20.9357C10.3843 15.0253 11.3308 8.61252 11.1426 8.30016C10.4483 9.05472 7.9889 19.2384 7.67466 21.8784C7.61068 22.4448 7.42251 22.9472 7.23246 23.4496C7.04429 24.3924 6.47602 24.8967 5.52953 24.8967C5.27738 24.8346 5.02524 24.8346 4.71099 24.8346C4.2688 24.8346 3.82848 24.8967 3.38628 24.8967C3.13414 24.8967 2.81801 24.8967 2.56587 24.8346C1.05299 24.7085 0.232572 24.4563 0.170476 22.8851C-0.585963 15.2154 1.43121 5.09376 1.24304 2.64192C1.18094 2.13951 1.36911 1.88736 1.87341 1.82526C2.88199 1.51102 3.95456 1.25887 5.08921 1.07071H5.27927C7.23246 1.07071 5.65749 5.59805 6.28785 6.22653C6.60209 5.78622 6.72817 5.28381 6.98031 4.84349C7.48461 3.52255 8.30502 2.45375 9.06146 1.38495C9.50366 0.692488 10.7644 0.442222 14.1684 0.190075C17.5723 -0.0620711 16.8799 10.6899 17.006 10.8141C17.7003 9.99744 18.5188 5.53408 21.1043 1.57312C21.6086 0.756465 24.0058 0.126099 26.9695 0.126099C28.1042 0.126099 28.7985 0.566415 29.1748 2.32579C30.1853 7.29157 28.4184 19.993 28.4184 20.3053C29.0488 19.7389 32.0764 14.0186 33.085 10.498C33.3371 9.61734 33.5253 9.49127 34.4078 9.49127C35.1041 9.49127 38.0037 10.7482 37.8777 11.881Z" fill="#0041B6"/>
<path d="M39.0103 17.6013C43.4869 8.42245 43.0447 8.54852 43.0447 4.02117C43.0447 3.64483 42.9826 3.33059 42.7925 3.14054C39.3867 5.78055 36.9913 13.7025 37.6856 19.4868C38.2539 18.8583 38.6961 18.2298 39.0103 17.6013ZM38.1899 23.4477C37.8757 23.4477 37.5595 23.4477 37.1173 23.3857C34.5959 23.1975 32.2626 23.3236 32.0725 20.6196C32.0104 19.8029 31.9465 18.9223 32.0104 18.0416C32.2005 15.1495 32.0104 15.0253 32.5787 12.5716C33.083 10.4979 33.5873 8.42245 34.5338 6.66307C35.7945 4.3373 38.1278 0.816653 40.5232 0.752675C41.7839 0.752675 42.9186 0.564506 44.1793 0.564506C46.3226 0.502411 46.5766 1.94755 47.5852 1.94755C47.7113 1.94755 47.7734 1.88545 47.8994 1.88545C48.2776 1.75938 48.6559 1.75938 49.0981 1.75938H49.9166C50.737 1.75938 50.8631 2.07362 50.8631 2.89028C50.8631 3.64484 50.8631 3.07845 48.4677 12.6976C47.9013 15.0234 47.5852 17.3492 47.8373 21.122C47.8373 21.5002 47.8373 21.9386 48.1516 22.0647C48.2137 22.0647 48.2137 22.1268 48.2776 22.1268C48.5298 22.1268 48.7198 21.6865 48.908 21.4362C49.3502 20.5556 52.9442 12.8237 53.2585 11.3767C53.6367 10.1197 53.7007 9.86758 54.9614 9.86758C55.7178 9.99366 57.0426 10.434 57.6729 11.1885C57.9251 11.6909 57.799 12.1934 57.5469 13.0119C56.9786 15.2756 55.2136 19.6749 54.0149 21.6244C52.6281 23.9501 50.8631 24.7047 48.2137 24.7047H47.3933C45.6922 24.7047 43.1689 24.5786 42.6646 22.505C42.4764 22.0026 42.4124 21.4362 42.3503 20.7456C40.335 22.441 40.2711 23.4477 38.1899 23.4477Z" fill="#0041B6"/>
<path d="M59.5002 16.3444C60.951 11.3146 62.5259 6.15878 63.5364 1.50724C63.6625 0.690587 63.7886 0.376343 64.2289 0.376343C64.355 0.376343 64.5431 0.376346 64.7332 0.438442C67.885 1.38117 69.2718 0.816661 68.8315 2.89028C67.7589 9.05094 65.9318 15.0234 63.9128 20.9338C62.5259 25.019 61.8956 26.7802 60.6969 26.7802C60.3808 26.7802 60.0026 26.6542 59.6244 26.466C57.165 25.1469 57.419 25.7114 55.1478 23.3236C54.5796 22.6311 54.3914 21.7505 54.2653 20.9978C53.5729 17.1008 53.635 14.7111 53.6989 1.76127C53.6989 0.880639 53.6368 0.566395 54.0772 0.566395C54.4554 0.566395 55.3379 0.880634 57.1029 1.25697C58.1115 1.50912 58.1115 2.89216 58.1115 3.77091C58.0494 5.34401 58.1115 6.97731 58.1736 8.54852C58.4257 11.2525 58.1115 13.3901 58.6158 17.7895C58.6158 17.8516 58.6779 17.9156 58.7419 18.1037C59.0599 17.4753 59.312 16.9108 59.5002 16.3444Z" fill="#0041B6"/>
<path d="M77.7319 2.95237C76.5351 3.58086 75.5246 4.39939 74.9583 5.65636C74.2018 7.1015 73.4435 8.67459 72.8771 10.2458C72.6871 10.6861 72.751 10.8743 73.0653 11.1264C73.2553 11.2525 73.3795 11.3146 73.5075 11.3146C73.6956 11.3146 73.8217 11.2525 73.9478 11.1264C77.0996 8.98884 78.4864 4.02306 78.0461 2.95426C77.9219 2.95237 77.794 2.89028 77.7319 2.95237ZM72.751 20.7456C72.8771 21.1239 73.0653 21.312 73.3814 21.312C73.5075 21.312 73.5715 21.2499 73.6956 21.2499C77.5418 20.4954 79.6869 18.6099 81.2619 16.0941C82.4606 14.0826 84.0995 11.3165 84.7299 10.1856C84.918 9.80737 85.0441 9.6192 85.2981 9.6192C85.4242 9.6192 85.5503 9.6813 85.7385 9.74528C86.811 10.1216 87.3134 10.4359 88.3239 10.8762C89.0164 11.0643 89.2685 11.8189 88.8903 12.4474C85.9266 18.3578 82.7108 24.7706 75.0185 24.7706C73.9459 24.7706 72.8752 24.5824 72.1809 24.016C70.9202 23.0112 67.5783 22.0666 66.6318 17.5411C66.1275 15.4035 66.1915 13.456 66.5697 11.0662C67.264 5.53405 72.1188 0.756442 74.3241 0.126076C74.7023 2.52354e-06 75.0185 0 75.3327 0C76.5934 0 77.8542 0.628482 80.2515 1.32094C81.4482 1.63519 82.5208 3.1443 82.5208 4.2752C82.5829 7.66977 79.431 13.8944 75.5228 13.8944C74.3881 13.8944 73.3795 13.392 72.6231 13.0138C72.4349 12.9517 72.3088 12.8877 72.2449 12.8877C72.0567 12.8877 72.0567 13.0138 71.9927 13.328C71.8045 14.0186 71.9927 17.225 71.9927 18.1056C72.1207 18.9844 72.3728 19.865 72.751 20.7456Z" fill="#0041B6"/>
<path d="M93.6831 1.31908C94.0613 0.940858 94.4395 0.816664 94.9438 0.816664C95.7003 0.816664 96.7728 1.13091 98.726 1.44515C99.5464 1.63332 100.051 2.13761 99.9868 3.01824C99.8607 4.02307 99.8607 5.09187 99.7346 6.22465C99.3564 8.55041 98.536 11.9469 100.049 13.7062C100.363 13.9584 100.553 14.3347 100.301 14.649C100.049 15.1514 99.7346 15.1514 99.2303 15.1514C97.9056 14.3968 96.3306 14.2087 95.1941 12.9517C94.1215 11.8208 94.5637 8.86654 94.1855 8.74046C94.0594 8.67837 93.7433 9.30685 93.175 10.4377C92.6708 11.5686 91.474 17.1648 90.2754 23.4515C90.0872 24.5203 89.5189 25.2749 88.8886 25.2749C88.7625 25.2749 88.5743 25.2128 88.3843 25.0867C87.2496 24.2701 85.1045 24.2701 84.9163 22.3827C84.6642 17.479 85.1685 1.13467 85.2306 0.756448C85.3566 0.38011 85.4206 0.190063 85.6088 0.190063C85.7348 0.190063 85.8609 0.252156 86.0491 0.316133C89.4549 1.13467 89.4549 0.756452 89.5791 1.88923C89.6412 3.46044 89.7052 6.47867 89.7692 6.79291C90.4033 5.78245 92.8006 2.13573 93.6831 1.31908Z" fill="#0041B6"/>
<path d="M106.2 17.6013C110.676 8.42245 110.236 8.54852 110.236 4.02117C110.236 3.64483 110.172 3.33059 109.984 3.14054C106.578 5.78055 104.183 13.7025 104.877 19.4868C105.441 18.8583 105.884 18.2298 106.2 17.6013ZM105.379 23.4477C105.065 23.4477 104.749 23.4477 104.307 23.3857C101.785 23.1975 99.452 23.3236 99.262 20.6196C99.1999 19.8029 99.1359 18.9223 99.1999 18.0416C99.3899 15.1495 99.1999 15.0253 99.7682 12.5716C100.272 10.4979 100.777 8.42245 101.723 6.66307C102.984 4.3373 105.317 0.816653 107.713 0.752675C108.973 0.752675 110.108 0.564506 111.369 0.564506C113.512 0.502411 113.766 1.94755 114.775 1.94755C114.901 1.94755 114.963 1.88545 115.089 1.88545C115.467 1.75938 115.845 1.75938 116.288 1.75938H117.106C117.926 1.75938 118.053 2.07362 118.053 2.89028C118.053 3.64484 118.053 3.07845 115.657 12.6976C115.091 15.0234 114.775 17.3492 115.027 21.122C115.027 21.5002 115.027 21.9386 115.341 22.0647C115.403 22.0647 115.403 22.1268 115.467 22.1268C115.719 22.1268 115.909 21.6865 116.097 21.4362C116.54 20.5556 120.134 12.8237 120.448 11.3767C120.826 10.1197 120.89 9.86758 122.151 9.86758C122.907 9.99366 124.232 10.434 124.862 11.1885C125.115 11.6909 124.988 12.1934 124.736 13.0119C124.168 15.2756 122.403 19.6749 121.204 21.6244C119.818 23.9501 118.053 24.7047 115.403 24.7047H114.583C112.882 24.7047 110.358 24.5786 109.854 22.505C109.666 22.0026 109.602 21.4362 109.54 20.7456C107.523 22.441 107.461 23.4477 105.379 23.4477Z" fill="#0041B6"/>
</svg>
